PathFileType	4	(X/Y/Z)	/Users/itak/Documents/Research/Walk-IL/dataset/trc/00072_00006.trc
DataRate	CameraRate	NumFrames	NumMarkers	Units	OrigDataRate	OrigDataStartFrame	OrigNumFrames
100.000000	100.000000	4	53	mm	100.000000	275	734
Frame#	Time	RPSI			LPSI			L3			STRN			T10			C7			CLAV			RBAK			LBAK			LSHO			LUPA			LAEL			LAOL			LWTS			LWPS			LFRA			LIFD			LHPS			LHTS			RSHO			RUPA			RAEL			RAOL			RWTS			RWPS			RFRA			RIFD			RHTS			RHPS			RBHD			LFHD			RFHD			LBHD			LHIP			RHIP			RASI			LASI			LKNE			LTHI			LANK			LTIP			LTOE			LMT1			LMT5			LHEE			RKNE			RTHI			RANK			RTIP			RTOE			RMT1			RMT5			RHEE			
		X1	Y1	Z1	X2	Y2	Z2	X3	Y3	Z3	X4	Y4	Z4	X5	Y5	Z5	X6	Y6	Z6	X7	Y7	Z7	X8	Y8	Z8	X9	Y9	Z9	X10	Y10	Z10	X11	Y11	Z11	X12	Y12	Z12	X13	Y13	Z13	X14	Y14	Z14	X15	Y15	Z15	X16	Y16	Z16	X17	Y17	Z17	X18	Y18	Z18	X19	Y19	Z19	X20	Y20	Z20	X21	Y21	Z21	X22	Y22	Z22	X23	Y23	Z23	X24	Y24	Z24	X25	Y25	Z25	X26	Y26	Z26	X27	Y27	Z27	X28	Y28	Z28	X29	Y29	Z29	X30	Y30	Z30	X31	Y31	Z31	X32	Y32	Z32	X33	Y33	Z33	X34	Y34	Z34	X35	Y35	Z35	X36	Y36	Z36	X37	Y37	Z37	X38	Y38	Z38	X39	Y39	Z39	X40	Y40	Z40	X41	Y41	Z41	X42	Y42	Z42	X43	Y43	Z43	X44	Y44	Z44	X45	Y45	Z45	X46	Y46	Z46	X47	Y47	Z47	X48	Y48	Z48	X49	Y49	Z49	X50	Y50	Z50	X51	Y51	Z51	X52	Y52	Z52	X53	Y53	Z53	

276	2.75	-516.2643432617188	1001.034545898438	286.8524169921875	-685.0869750976562	1009.80908203125	305.7554931640625	-611.8187255859375	1067.058227539062	297.3656311035156	-612.4479370117188	1257.944580078125	33.70587539672852	-630.5836791992188	1196.032104492188	301.49658203125	-639.5267944335938	1463.230346679688	237.6267395019531	-616.7381591796875	1372.721557617188	61.95582580566406	-568.8333740234375	1326.414306640625	309.6881103515625	-739.260986328125	1423.720336914062	251.8966064453125	-801.09423828125	1429.313842773438	144.3959197998047	-886.47265625	1309.57177734375	151.9022827148438	-933.5287475585938	1104.484008789062	109.2346572875977	-855.0128173828125	1072.517333984375	174.9520874023438	-894.5302124023438	872.8621215820312	-10.05962085723877	-956.9553833007812	861.2213745117188	45.17978668212891	-952.6273193359375	1000.368774414062	75.12969970703125	-895.3081665039062	692.4328002929688	-45.80226135253906	-961.927490234375	786.8737182617188	-0.1611195951700211	-908.224609375	796.9761962890625	-46.01896667480469	-459.6329345703125	1430.153198242188	195.2914886474609	-398.5204162597656	1369.03662109375	222.6750030517578	-351.4010925292969	1121.510864257812	297.2332458496094	-436.0300598144531	1086.603637695312	260.3410949707031	-337.8727722167969	864.3897705078125	156.9603881835938	-303.02587890625	851.9769287109375	236.1516418457031	-331.4090270996094	1038.843994140625	291.5820007324219	-358.8182678222656	678.1986083984375	159.1630401611328	-330.785888671875	760.5990600585938	136.6579437255859	-291.1591491699219	760.776611328125	203.7112884521484	-706.4955444335938	1652.93359375	143.7633972167969	-504.5157165527344	1659.107788085938	67.79615783691406	-607.2881469726562	1676.406616210938	-3.242937326431274	-589.7940063476562	1626.896484375	212.7341461181641	-791.3818359375	955.3972778320312	219.2870483398438	-443.585205078125	927.3800659179688	213.5220794677734	-474.9970703125	948.0303344726562	90.46982574462891	-742.0181274414062	950.5966796875	94.72426605224609	-756.7883911132812	485.6208801269531	198.3997650146484	-783.5722045898438	630.17578125	211.0815277099609	-757.5582275390625	49.25226974487305	404.7788696289062	-769.9579467773438	261.510498046875	315.7026062011719	-786.8294677734375	43.15063858032227	202.3638916015625	-726.9442749023438	47.08632278442383	240.1602478027344	-815.0060424804688	35.46728134155273	312.4061889648438	-673.4307861328125	57.3165168762207	443.1284790039062	-506.4491271972656	507.0757141113281	8.589385032653809	-447.9850158691406	759.5087890625	102.2907638549805	-577.2764892578125	37.6009635925293	-96.39576721191406	-516.4614868164062	388.8048706054688	-15.49054431915283	-546.0849609375	136.6718139648438	-280.0827331542969	-601.653564453125	114.8319778442383	-245.3619995117188	-521.9143676757812	88.45144653320312	-192.9703063964844	-645.2631225585938	31.87744522094727	-73.29595947265625	
277	2.76	-516.645263671875	998.9752807617188	278.5501098632812	-685.4456176757812	1008.176635742188	296.5113525390625	-612.0804443359375	1065.053955078125	288.3923950195312	-610.2527465820312	1256.00341796875	25.0244312286377	-630.6130981445312	1194.116821289062	292.65673828125	-638.3434448242188	1461.431518554688	228.87646484375	-614.3174438476562	1370.818969726562	53.2335090637207	-568.5175170898438	1324.338256835938	301.3660888671875	-738.2474365234375	1422.110473632812	242.3463439941406	-799.1981811523438	1427.754028320312	134.3175659179688	-884.609619140625	1308.023193359375	141.0313262939453	-931.7228393554688	1103.240844726562	97.52552032470703	-853.6179809570312	1070.8798828125	163.5323486328125	-891.9126586914062	872.4957275390625	-23.03863906860352	-954.5286254882812	860.3313598632812	31.85198020935059	-950.6350708007812	999.3139038085938	62.67564392089844	-892.271240234375	692.3614501953125	-60.14302825927734	-959.2030639648438	786.3352661132812	-14.07907104492188	-905.3803100585938	796.9048461914062	-59.64501953125	-458.1909484863281	1427.874389648438	187.9422607421875	-397.4147033691406	1366.730834960938	215.8803100585938	-351.1339416503906	1119.368041992188	291.3010559082031	-435.4757995605469	1084.499145507812	253.815185546875	-336.9782409667969	861.9678344726562	151.5308227539062	-302.6329345703125	849.6712036132812	230.9851684570312	-331.1289978027344	1036.663452148438	285.9314270019531	-358.2904052734375	675.8785400390625	153.8363037109375	-329.8846740722656	758.2092895507812	131.4260711669922	-290.7774658203125	758.369873046875	198.7850494384766	-704.509033203125	1651.108764648438	134.3146514892578	-501.7897033691406	1657.271484375	60.45183944702148	-603.81201171875	1674.678833007812	-11.66839790344238	-588.6216430664062	1624.959228515625	204.4148559570312	-790.05419921875	952.6885986328125	207.7756805419922	-443.6504516601562	925.1865844726562	205.6127014160156	-474.4698486328125	945.68896484375	82.42777252197266	-741.675048828125	948.8547973632812	85.28263092041016	-756.2398071289062	484.1045532226562	193.1929779052734	-783.2586669921875	628.7120361328125	204.1908874511719	-757.4940795898438	49.99095153808594	404.5032043457031	-769.7115478515625	261.2279663085938	313.1420593261719	-786.802734375	42.97550964355469	202.1456909179688	-726.872314453125	46.9025764465332	240.022705078125	-814.93115234375	35.61170959472656	312.2204284667969	-673.2896118164062	58.21475982666016	442.9308166503906	-507.3894348144531	504.8804016113281	1.645709872245789	-448.5201110839844	756.950927734375	94.73423004150391	-577.1207885742188	37.21817398071289	-109.9735412597656	-516.8817138671875	387.1120300292969	-23.20587730407715	-541.8589477539062	138.0352478027344	-291.9435119628906	-598.1873168945312	116.0966339111328	-258.6913452148438	-519.8027954101562	88.64679718017578	-204.8350524902344	-645.5244140625	31.44937324523926	-88.239501953125	
278	2.77	-516.9359130859375	997.0050659179688	270.2017517089844	-685.7322387695312	1006.590759277344	287.1071166992188	-612.2796020507812	1063.094604492188	279.2663879394531	-607.9057006835938	1254.124267578125	16.21250534057617	-630.5468139648438	1192.266723632812	283.6897583007812	-636.97509765625	1459.723999023438	220.0524291992188	-611.7361450195312	1368.970947265625	44.39748382568359	-568.0401611328125	1322.312622070312	292.9399108886719	-737.0059204101562	1420.58251953125	232.7134857177734	-797.0970458984375	1426.274658203125	124.174446105957	-882.5333862304688	1306.557495117188	130.1699066162109	-929.6949462890625	1102.055908203125	85.96521759033203	-851.9447631835938	1069.340698242188	152.2240600585938	-889.1192626953125	872.15576171875	-35.78220367431641	-951.8602905273438	859.4732666015625	18.8187313079834	-948.4158325195312	998.299560546875	50.44353866577148	-889.0318603515625	692.3180541992188	-74.18606567382812	-956.2371826171875	785.8135375976562	-27.6621036529541	-902.3781127929688	796.85595703125	-72.99949645996094	-456.5498046875	1425.616577148438	180.485595703125	-396.12451171875	1364.41064453125	208.9566497802734	-350.6873168945312	1117.190551757812	285.1171264648438	-434.7589416503906	1082.37109375	247.0775299072266	-336.0496215820312	859.5055541992188	145.8368377685547	-302.1372680664062	847.3328247070312	225.5177459716797	-330.6843872070312	1034.454223632812	280.011962890625	-357.6425170898438	673.5484619140625	148.1945648193359	-328.8833618164062	755.8038940429688	125.8582000732422	-290.2924499511719	755.9502563476562	193.5254516601562	-702.3099365234375	1649.364135742188	124.7693634033203	-498.8383483886719	1655.473876953125	53.07282638549805	-600.0808715820312	1673.025634765625	-20.14793395996094	-587.2571411132812	1623.072875976562	196.0169219970703	-788.6576538085938	950.0011596679688	196.1448516845703	-443.5848388671875	923.132568359375	197.6512603759766	-473.7659301757812	943.4527587890625	74.36011505126953	-741.2122802734375	947.156494140625	75.73190307617188	-755.63525390625	482.6524353027344	187.873046875	-782.8678588867188	627.2771606445312	197.1430816650391	-757.5185546875	50.83523559570312	404.2598266601562	-769.5184936523438	261.0797729492188	310.5378723144531	-786.7952880859375	42.82183837890625	201.9636077880859	-726.8370971679688	46.74925231933594	239.9093780517578	-814.8743896484375	35.74408340454102	312.0505676269531	-673.2876586914062	59.34119033813477	442.7677612304688	-507.9467468261719	503.1046447753906	-6.07300853729248	-448.8675231933594	754.818115234375	86.63626098632812	-577.3915405273438	36.64654922485352	-120.9681396484375	-517.0995483398438	385.4020690917969	-31.05978202819824	-538.0575561523438	137.5835113525391	-301.9220581054688	-595.1192626953125	115.8565826416016	-269.96875	-518.1507568359375	87.75338745117188	-214.4895935058594	-646.2007446289062	31.05216026306152	-100.5998992919922	
279	2.78	-517.1456909179688	995.166015625	261.8152465820312	-685.9559936523438	1005.087768554688	277.5374450683594	-612.4342041015625	1061.21533203125	269.9950256347656	-605.3857421875	1252.344970703125	7.270517349243164	-630.3952026367188	1190.516845703125	274.5930786132812	-635.4287719726562	1458.143188476562	211.1549682617188	-608.9866333007812	1367.215209960938	35.44835662841797	-567.4014892578125	1320.368774414062	284.4139099121094	-735.5470581054688	1419.1689453125	222.9878234863281	-794.7884521484375	1424.909912109375	113.95751953125	-880.2483520507812	1305.211181640625	119.3112106323242	-927.4514770507812	1100.957153320312	74.56644439697266	-850.0050048828125	1067.935913085938	141.0464782714844	-886.1416015625	871.8568115234375	-48.26122283935547	-948.9576416015625	858.6681518554688	6.095566272735596	-945.974853515625	997.3483276367188	38.44858551025391	-885.5731201171875	692.3140258789062	-87.89152526855469	-953.0389404296875	785.3275756835938	-40.89078903198242	-899.2103881835938	796.8416137695312	-86.05494689941406	-454.7107543945312	1423.41796875	172.9311828613281	-394.6530151367188	1362.109497070312	201.9082336425781	-350.0709838867188	1115.008666992188	278.6813049316406	-433.8848571777344	1080.24658203125	240.1122131347656	-335.0685119628906	857.0446166992188	139.8799285888672	-301.541748046875	844.9949340820312	219.7550811767578	-330.0900573730469	1032.243774414062	273.8210754394531	-356.8606872558594	671.2344970703125	142.2687377929688	-327.7809143066406	753.403076171875	119.9765930175781	-289.6957397460938	753.5547485351562	187.9453430175781	-699.895263671875	1647.734497070312	115.1243591308594	-495.6662902832031	1653.74951171875	45.65645980834961	-596.0823364257812	1671.478637695312	-28.6857795715332	-585.7002563476562	1621.270874023438	187.5428771972656	-787.3895874023438	947.5377197265625	184.6511383056641	-443.4148254394531	921.238525390625	189.6673583984375	-472.9037170410156	941.3683471679688	66.27729797363281	-740.6212768554688	945.5260620117188	66.08303833007812	-754.9754028320312	481.2725830078125	182.3719329833984	-782.4110107421875	625.8963012695312	189.8860931396484	-757.6557006835938	51.82163238525391	404.0479431152344	-769.4058837890625	261.0939331054688	307.8409423828125	-786.80126953125	42.694580078125	201.8157196044922	-726.8462524414062	46.63069534301758	239.8193969726562	-814.8521728515625	35.86362075805664	311.8920593261719	-673.4736328125	60.75936126708984	442.6395263671875	-508.0953979492188	501.7400817871094	-14.52574157714844	-448.9826965332031	753.1548461914062	78.01825714111328	-578.0193481445312	35.90666198730469	-129.4793090820312	-517.1248168945312	383.7039184570312	-39.05804824829102	-534.86279296875	135.3401489257812	-310.1980285644531	-592.5810546875	114.0812225341797	-279.3047180175781	-516.9893188476562	85.85852813720703	-222.1153564453125	-647.2078247070312	30.65466499328613	-110.4090423583984	
